<?xml version="1.0" encoding="UTF-8"?>
<svg id="Layer_2" data-name="Layer 2" xmlns="http://www.w3.org/2000/svg" viewBox="0 0 3795.49 906.01">
  <defs>
    <style>
      .cls-1 {
        stroke: #00a651;
      }

      .cls-1, .cls-2, .cls-3, .cls-4 {
        fill: none;
        stroke-miterlimit: 10;
        stroke-width: 15px;
      }

      .cls-2 {
        stroke: #231f20;
      }

      .cls-3 {
        stroke: #1c75bc;
      }

      .cls-4 {
        stroke: #ed1c24;
      }

      .cls-5 {
        fill: #1c75bc;
      }
    </style>
  </defs>
  <g id="Layer_1-2" data-name="Layer 1">
    <line class="cls-3" x1="627.19" y1="849.24" x2="673.26" y2="727.18"/>
    <line class="cls-3" x1="500.87" y1="773.57" x2="604.33" y2="855.56"/>
    <line class="cls-3" x1="290.49" y1="856.33" x2="391.05" y2="774.33"/>
    <line class="cls-3" x1="220.08" y1="729.04" x2="266.04" y2="849.65"/>
    <line class="cls-3" x1="47.72" y1="628.54" x2="167.49" y2="675.82"/>
    <line class="cls-3" x1="120.7" y1="503.87" x2="40.15" y2="604.87"/>
    <line class="cls-3" x1="40.17" y1="293.22" x2="120.62" y2="393.77"/>
    <line class="cls-3" x1="167.52" y1="221.86" x2="46.3" y2="270.08"/>
    <line class="cls-3" x1="266.96" y1="46.4" x2="220.15" y2="168.56"/>
    <line class="cls-3" x1="392.47" y1="121.94" x2="289.88" y2="40.15"/>
    <line class="cls-3" x1="604.4" y1="40.19" x2="502.54" y2="121.8"/>
    <line class="cls-3" x1="673.29" y1="168.56" x2="627.19" y2="46.43"/>
    <line class="cls-3" x1="850.22" y1="267.19" x2="726.03" y2="221"/>
    <line class="cls-3" x1="773.13" y1="392.29" x2="857.23" y2="289.25"/>
    <line class="cls-3" x1="856.74" y1="604.97" x2="772.95" y2="501.61"/>
    <line class="cls-3" x1="725.98" y1="674.53" x2="850.58" y2="627.68"/>
    <line class="cls-3" x1="636.1" y1="856.56" x2="856.65" y2="636"/>
    <line class="cls-3" x1="294.17" y1="869.96" x2="600.07" y2="869.96"/>
    <line class="cls-3" x1="40.14" y1="636.32" x2="258.84" y2="855.02"/>
    <line class="cls-3" x1="27.06" y1="297.63" x2="27.06" y2="600.48"/>
    <line class="cls-3" x1="259.75" y1="41.64" x2="39.88" y2="261.52"/>
    <line class="cls-3" x1="599.98" y1="27.61" x2="294.27" y2="27.61"/>
    <line class="cls-3" x1="854.66" y1="259.58" x2="635.59" y2="40.51"/>
    <line class="cls-3" x1="869.41" y1="600.48" x2="869.41" y2="293.35"/>
    <line class="cls-1" x1="205.52" y1="390.86" x2="205.52" y2="247.51"/>
    <line class="cls-1" x1="205.52" y1="649.95" x2="205.52" y2="506.6"/>
    <line class="cls-1" x1="386.95" y1="688.92" x2="246.4" y2="688.92"/>
    <line class="cls-1" x1="641.43" y1="688.92" x2="500.87" y2="688.92"/>
    <line class="cls-1" x1="687.7" y1="503.38" x2="687.7" y2="648.23"/>
    <line class="cls-1" x1="687.7" y1="247.62" x2="687.7" y2="392.48"/>
    <line class="cls-1" x1="507.15" y1="206.74" x2="646.82" y2="206.74"/>
    <line class="cls-1" x1="246.4" y1="206.74" x2="386.07" y2="206.74"/>
    <circle class="cls-2" cx="447.82" cy="446.88" r="116.02"/>
    <circle class="cls-4" cx="728.59" cy="446.88" r="70.46"/>
    <circle class="cls-1" cx="687.7" cy="688.92" r="40.88"/>
    <circle class="cls-1" cx="687.7" cy="206.74" r="40.88"/>
    <circle class="cls-3" cx="869.41" cy="273.24" r="20.11"/>
    <circle class="cls-3" cx="620.09" cy="27.61" r="20.11"/>
    <circle class="cls-3" cx="274.15" cy="27.61" r="20.11"/>
    <circle class="cls-3" cx="27.61" cy="277.52" r="20.11"/>
    <circle class="cls-3" cx="27.61" cy="620.6" r="20.11"/>
    <circle class="cls-3" cx="274.15" cy="868.05" r="20.11"/>
    <circle class="cls-3" cx="620.09" cy="868.05" r="20.11"/>
    <circle class="cls-3" cx="869.41" cy="620.6" r="20.11"/>
    <circle class="cls-1" cx="205.52" cy="206.74" r="40.88"/>
    <circle class="cls-1" cx="205.52" cy="690.83" r="40.88"/>
    <circle class="cls-4" cx="447.56" cy="165.86" r="70.46"/>
    <circle class="cls-4" cx="164.63" cy="448.79" r="70.46"/>
    <circle class="cls-4" cx="445.66" cy="729.81" r="70.46"/>
    <g>
      <path class="cls-5" d="M1027.53,615.2l293.77-321.21h-213.07l27.44-129.13h407.57l-21.79,114.6-293.77,321.21h225.98l-27.44,129.13h-421.29l22.6-114.6Z"/>
      <path class="cls-5" d="M1513.38,402.95c30.67-142.85,140.43-248.58,298.62-248.58,196.92,0,290.54,148.5,251,337.35-29.86,142.85-139.62,249.38-297.81,249.38-196.92,0-292.16-149.31-251.81-338.16ZM1771.65,604.71c76.67,0,124.29-59.72,139.62-132.36,20.18-99.27-15.33-181.59-106.53-181.59-77.48,0-123.48,58.92-139.62,130.75-20.98,97.66,13.72,183.2,106.53,183.2Z"/>
      <path class="cls-5" d="M2060.57,546.6h129.94c-3.23,51.65,27.44,83.13,78.29,83.13,32.28,0,55.69-16.14,61.34-42.78,24.21-108.15-262.3-61.34-214.68-288.12,18.56-87.97,96.85-142.04,200.15-142.04,125.1,0,205.8,65.37,193.7,180.78h-121.87c3.23-44.39-29.86-71.83-71.02-71.83-31.48,0-58.11,16.14-63.76,43.58-22.6,111.38,266.33,60.53,218.71,285.7-18.56,87.16-92.01,145.27-204.19,145.27-128.32,0-218.72-63.76-206.61-193.7Z"/>
      <path class="cls-5" d="M2595.66,164.86h156.57l-120.25,564.95h-156.57l120.25-564.95Z"/>
      <path class="cls-5" d="M2740.93,463.48l63.76-298.61h153.34l-68.6,324.44c-16.95,79.09,7.26,122.67,67.79,122.67,54.88,0,82.32-30.67,100.08-115.41l70.21-331.7h154.15l-74.25,348.65c-35.51,163.84-108.15,228.4-258.26,228.4-173.52,0-246.96-98.46-208.22-278.44Z"/>
      <path class="cls-5" d="M3259.88,403.75c29.86-142.04,138.01-249.38,292.16-249.38s251.8,100.08,242.93,250.19h-143.66c.81-71.02-36.32-116.22-102.5-116.22-72.64,0-121.87,62.14-137.2,135.59-20.98,98.46,12.91,182.4,105.73,182.4,54.88,0,97.66-32.28,116.22-105.73h145.27c-33.9,167.06-141.24,239.7-267.95,239.7-193.7,0-291.35-145.27-251-336.55Z"/>
    </g>
    <line class="cls-4" x1="678.96" y1="397.25" x2="497.27" y2="215.56"/>
    <line class="cls-4" x1="496.5" y1="681.13" x2="680.17" y2="497.45"/>
    <line class="cls-4" x1="214.44" y1="498.59" x2="396.93" y2="678.92"/>
    <line class="cls-4" x1="397.86" y1="215.56" x2="214.38" y2="399.05"/>
    <g>
      <path d="M3076.36,868.73h17.87c-1.19,13.28,9.19,21.62,23.49,21.62,10.55,0,18.21-5.45,20.09-14.47,6.64-30.64-59.07-17.36-49.03-65.03,3.58-16.85,18.21-27.24,37.79-27.24,24.51,0,41.37,12.94,39.15,35.75h-17.36c1.02-13.11-9.02-20.09-21.28-20.09-10.21,0-17.87,5.62-19.75,14.47-6.3,29.45,59.41,17.02,49.37,64.01-3.58,16.68-18.38,28.26-39.15,28.26-25.19,0-43.24-12.43-41.2-37.28Z"/>
      <path d="M3174.75,854.77c4.6-21.79,21.28-38.13,45.28-38.13,29.28,0,43.75,22.13,37.79,51.07-4.6,22.13-21.45,38.13-45.11,38.13-29.96,0-44.09-22.47-37.96-51.07ZM3213.22,890.18c13.79,0,22.64-11.41,25.7-25.02,3.92-18.21-2.21-33.02-19.75-33.02-14.13,0-22.64,11.58-25.53,25.02-3.92,18.21,1.7,33.02,19.58,33.02Z"/>
      <path d="M3325.4,773.91c6.98,0,14.81,1.87,18.55,4.08l-3.23,15.15c-4.09-2.55-8.34-3.92-12.43-3.92-8.68,0-12.6,6.13-14.98,17.02l-2.55,11.92h24.34l-3.06,14.3h-24.34l-15.15,71.84h-18.72l15.15-71.84h-13.96l3.06-14.3h13.96l3.06-14.47c4.26-19.92,13.45-29.79,30.3-29.79Z"/>
      <path d="M3344.13,869.92l8-37.28h-15.32l3.06-14.47h15.32l6.81-32h18.55l-6.81,32h25.53l-3.23,14.47h-25.36l-8.34,38.81c-2.89,13.79-.51,19.58,11.41,19.58,4.09,0,7.32-.85,10.21-2.38l-3.4,16c-1.87.85-6.13,1.36-10.04,1.36-24.51,0-32-9.53-26.38-36.09Z"/>
      <path d="M3405.75,818.17h18.9l2.55,60.77,32.85-61.11h16l5.28,60.43,28.26-60.09h19.75l-44.26,86.31h-16.34l-6.64-60.09-32.68,60.09h-16.34l-7.32-86.31Z"/>
      <path d="M3528.32,854.77c4.26-20.6,18.55-37.96,40.17-37.96,14.64,0,23.66,7.49,27.58,19.07l3.92-17.7h18.04l-18.21,85.96h-18.04l2.21-10.55c-6.47,7.32-15.32,11.92-26.04,11.92-25.7,0-35.24-24.68-29.62-50.73ZM3564.58,890.01c13.28,0,21.96-11.58,24.68-24.85,3.75-17.7-2.04-33.19-17.7-33.19-13.11,0-21.62,11.92-24.34,25.19-3.75,17.02,1.7,32.85,17.36,32.85Z"/>
      <path d="M3641.69,818.17h18.04l-3.58,16.51c6.47-11.23,15.66-17.19,29.28-17.19,2.21,0,4.43.34,5.79.68l-3.92,18.9c-21.28-.34-31.83,5.79-37.11,30.3l-7.66,36.77h-19.24l18.38-85.96Z"/>
      <path d="M3693.44,854.6c4.6-21.79,20.6-37.96,45.28-37.96s38.47,17.53,35.41,46.3l-.34,3.23h-63.49c-.51,15.66,7.83,24.34,21.62,24.34,10.72,0,18.38-6.3,21.11-14.47h18.04c-4.77,18.38-19.41,29.79-40,29.79-29.45,0-44.09-21.62-37.62-51.24ZM3757.62,853.07c-.17-13.28-7.32-21.79-20.26-21.79s-21.28,9.02-24.85,21.79h45.11Z"/>
    </g>
  </g>
</svg>